<svg viewBox="0 0 1050 1050" xmlns="http://www.w3.org/2000/svg">
    <clipPath id="myClip">
        <polygon style="fill: #fff; stroke: #fff;"
            points="655.628 643.578 768.72 513.089 823.09 413.044 826.618 392.21 700.062 260.914 656.187 275.538 585.676 319.933 501.067 390.443 456.147 439.541 397.127 516.843 337.064 630.704 329.75 653.161 336.019 661.519 340.197 666.741 328.706 686.069 357.432 712.706 357.619 723.689 349.095 727.669 332.047 710.335 301.363 722.838 266.699 766.027 254.194 804.385 247.375 831.378 243.68 862.349 283.747 857.801 317.557 849.846 350.517 833.366 372.109 810.919 382.909 795.007 387.739 781.37 390.58 771.993 383.191 763.755 380.919 758.353 376.943 752.387 384.899 753.809 392.283 752.387 402.515 762.047 411.889 771.711 420.413 777.108 434.054 766.027 440.873 772.56 460.761 772.847 503.096 751.819 580.666 704.937 612.49 682.491 645.732 654.928">
        </polygon>
        <polyline style="fill: #fff; stroke: #fff;"
            points="859.19 228.927 857.323 294.244 847.621 341.645 835.565 381.728 827.464 374.492 717.732 255.427 739.751 241.989 786.033 233.03 828.956 226.687 851.354 225.565">
        </polyline>
        <polygon style="fill: #fff; stroke: #fff;"
            points="535.968 757.46 583.556 723.957 601.069 720.531 606.781 741.09 593.455 818.374 578.99 853.779 548.531 900.227 515.028 930.683 481.148 951.241 473.149 944.009 486.855 889.566 487.237 828.27 481.148 799.721 479.242 784.871 509.319 767.357 544.344 747.941">
        </polygon>
        <polyline style="fill: #fff; stroke: #fff;"
            points="388.632 491.342 353.989 486.773 296.882 494.767 243.582 520.657 220.36 537.409 221.118 543.118 365.409 541.216 372.261 527.89 379.497 511.519">
        </polyline>
    </clipPath>
    <g id="black" transform="matrix(1, 0, 0, 1, 0,0)">
        <g id="Circulo">
            <path class="cls-1" d="M540,935.74c173.9808,0,321.7458-112.28,374.77-268.3329"
                style="fill: none; stroke: #fff; stroke-linecap: round; stroke-miterlimit: 10; stroke-width: 11px;">
            </path>
            <path class="cls-1" d="M871.5626,323.9a393.4864,393.4864,0,0,1,63.9245,201.8183"
                style="fill: none; stroke: #fff; stroke-linecap: round; stroke-miterlimit: 10; stroke-width: 11px;">
            </path>
            <path class="cls-1" d="M143.91,522.2657C159.2319,246.31,480.7068,20.8192,765.5084,215.3931"
                style="fill: none; stroke: #fff; stroke-linecap: round; stroke-miterlimit: 10; stroke-width: 11px;">
            </path>
            <path class="cls-1" d="M239.0555,796.2305c-34.8286-42.3636-59.32-86.47-74.8061-130.8787"
                style="fill: none; stroke: #fff; stroke-linecap: round; stroke-miterlimit: 10; stroke-width: 11px;">
            </path>
            <path class="cls-1" d="M314.4843,865.2313a393.5151,393.5151,0,0,0,149.7386,63.2626"
                style="fill: none; stroke: #fff; stroke-linecap: round; stroke-miterlimit: 10; stroke-width: 11px;">
            </path>
        </g>
        <g clip-path="url(#myClip)">
            <g transform="translate(517,143) scale(1,-1) translate(-517,-143)">
                <linearGradient id="lg-0.6018211983507995" x1="0" x2="1" y1="0" y2="0">
                    <stop stop-color="#1ce8bb" offset="0"></stop>
                    <stop stop-color="#1ce8bb" offset="1"></stop>
                </linearGradient>
                <path d="" fill="url(#lg-0.6018211983507995)" opacity="0.4">
                    <animate attributeName="d" dur="0.7633587786259541s" repeatCount="indefinite"
                        keyTimes="0;0.333;0.667;1" calcMode="spline" keySplines="0.5 0 0.5 1;0.5 0 0.5 1;0.5 0 0.5 1"
                        begin="0s"
                        values="M0 0L 0 157.52523773068094Q 129.25 186.65786603958526  258.5 169.31827503355234T 517 182.71578740903544T 775.5 142.60750966726386T 1034 147.3173917543694L 1034 0 Z;M0 0L 0 189.83462297395707Q 129.25 202.58971643348468  258.5 163.88244712819855T 517 153.41648666895426T 775.5 141.92899895044462T 1034 195.47406305378917L 1034 0 Z;M0 0L 0 142.51433861216802Q 129.25 163.89175726093404  258.5 144.40214040920677T 517 197.67185899740784T 775.5 161.90473724958838T 1034 197.53577342073956L 1034 0 Z;M0 0L 0 157.52523773068094Q 129.25 186.65786603958526  258.5 169.31827503355234T 517 182.71578740903544T 775.5 142.60750966726386T 1034 147.3173917543694L 1034 0 Z">
                    </animate>
                </path>
                <path d="" fill="url(#lg-0.6018211983507995)" opacity="0.4">
                    <animate attributeName="d" dur="0.7633587786259541s" repeatCount="indefinite"
                        keyTimes="0;0.333;0.667;1" calcMode="spline" keySplines="0.5 0 0.5 1;0.5 0 0.5 1;0.5 0 0.5 1"
                        begin="-0.15267175572519082s"
                        values="M0 0L 0 140.30089265820044Q 129.25 149.98609692590054  258.5 128.38660250263663T 517 170.39677124738301T 775.5 195.34110692077093T 1034 143.87933891687044L 1034 0 Z;M0 0L 0 197.4207888303649Q 129.25 220.80779255087015  258.5 188.97825149308142T 517 200.70267081320952T 775.5 161.5689373438989T 1034 129.957903739316L 1034 0 Z;M0 0L 0 137.3729734766441Q 129.25 216.3155986505125  258.5 171.57264899862258T 517 155.30180654015118T 775.5 188.19259435331563T 1034 183.89653643986512L 1034 0 Z;M0 0L 0 140.30089265820044Q 129.25 149.98609692590054  258.5 128.38660250263663T 517 170.39677124738301T 775.5 195.34110692077093T 1034 143.87933891687044L 1034 0 Z">
                    </animate>
                </path>
                <path d="" fill="url(#lg-0.6018211983507995)" opacity="0.4">
                    <animate attributeName="d" dur="0.7633587786259541s" repeatCount="indefinite"
                        keyTimes="0;0.333;0.667;1" calcMode="spline" keySplines="0.5 0 0.5 1;0.5 0 0.5 1;0.5 0 0.5 1"
                        begin="-0.30534351145038163s"
                        values="M0 0L 0 147.41160350392278Q 129.25 169.71700120376994  258.5 139.49642233803772T 517 204.72897727642788T 775.5 202.3224380302065T 1034 182.1634111274501L 1034 0 Z;M0 0L 0 129.2832024736216Q 129.25 207.32247856989082  258.5 173.6869805915243T 517 183.89791101575733T 775.5 181.26868336080278T 1034 166.82612230488616L 1034 0 Z;M0 0L 0 194.58765760182166Q 129.25 188.6318511290137  258.5 159.96973834668572T 517 142.7972091646322T 775.5 132.81438143503158T 1034 163.44322269708314L 1034 0 Z;M0 0L 0 147.41160350392278Q 129.25 169.71700120376994  258.5 139.49642233803772T 517 204.72897727642788T 775.5 202.3224380302065T 1034 182.1634111274501L 1034 0 Z">
                    </animate>
                </path>
                <path d="" fill="url(#lg-0.6018211983507995)" opacity="0.4">
                    <animate attributeName="d" dur="0.7633587786259541s" repeatCount="indefinite"
                        keyTimes="0;0.333;0.667;1" calcMode="spline" keySplines="0.5 0 0.5 1;0.5 0 0.5 1;0.5 0 0.5 1"
                        begin="-0.4580152671755725s"
                        values="M0 0L 0 127.82665664136799Q 129.25 198.08746053629818  258.5 171.26043680831353T 517 193.2689514894642T 775.5 193.6199904579268T 1034 194.7255745632809L 1034 0 Z;M0 0L 0 196.81702648221207Q 129.25 205.76689487499107  258.5 191.3546728436995T 517 173.54716253981118T 775.5 172.36691567045756T 1034 181.1768974905797L 1034 0 Z;M0 0L 0 154.62427108284825Q 129.25 179.7224853160755  258.5 158.09948180523745T 517 200.51286067901117T 775.5 194.68470384907036T 1034 144.77105108879027L 1034 0 Z;M0 0L 0 127.82665664136799Q 129.25 198.08746053629818  258.5 171.26043680831353T 517 193.2689514894642T 775.5 193.6199904579268T 1034 194.7255745632809L 1034 0 Z">
                    </animate>
                </path>
                <path d="" fill="url(#lg-0.6018211983507995)" opacity="0.4">
                    <animate attributeName="d" dur="0.7633587786259541s" repeatCount="indefinite"
                        keyTimes="0;0.333;0.667;1" calcMode="spline" keySplines="0.5 0 0.5 1;0.5 0 0.5 1;0.5 0 0.5 1"
                        begin="-0.6106870229007633s"
                        values="M0 0L 0 139.34984854185478Q 129.25 235.49468596350866  258.5 196.28408537044126T 517 164.0674560207936T 775.5 142.89623810547357T 1034 162.44276937580437L 1034 0 Z;M0 0L 0 159.99780771934968Q 129.25 180.37777392856933  258.5 142.87146035398348T 517 140.10938528791723T 775.5 132.9449841084754T 1034 187.24510554729477L 1034 0 Z;M0 0L 0 196.76376910678937Q 129.25 190.0223243871747  258.5 159.17473154489022T 517 134.19489055674964T 775.5 164.4242270791832T 1034 197.7008126989265L 1034 0 Z;M0 0L 0 139.34984854185478Q 129.25 235.49468596350866  258.5 196.28408537044126T 517 164.0674560207936T 775.5 142.89623810547357T 1034 162.44276937580437L 1034 0 Z">
                    </animate>
                </path>
                <rect x="0" y="-1000" width="1000" height="1000" style="stroke: #1CE8BB; fill: #1CE8BB;"
                    opacity="0.4" />
                <rect x="0" y="-1000" width="1000" height="1000" style="stroke: #1CE8BB; fill: #1CE8BB;"
                    opacity="0.4" />
                <rect x="0" y="-1000" width="1000" height="1000" style="stroke: #1CE8BB; fill: #1CE8BB;"
                    opacity="0.4" />
                <rect x="0" y="-1000" width="1000" height="1000" style="stroke: #1CE8BB; fill: #1CE8BB;"
                    opacity="0.4" />
                <rect x="0" y="-1000" width="1000" height="1000" style="stroke: #1CE8BB; fill: #1CE8BB;"
                    opacity="0.4" />
                <animateMotion dur="8s" repeatCount="indefinite" path="M 0 950 L 0 0 Z" />
            </g>
        </g>
        <g id="foguete">
            <path class="cls-2"
                d="M628.41,468.4861c-18.3656-19.531-18.4305-50.7788-.1553-69.7067,18.275-18.9073,48.0871-18.41,66.4527,1.1209,18.3462,19.51,18.4111,50.7786.146,69.6757C676.5585,488.5035,646.7561,487.9965,628.41,468.4861Z"
                style="fill: none; stroke: rgb(255, 255, 255); stroke-miterlimit: 10; stroke-width: 3px;"></path>
            <path class="cls-2"
                d="M848.8043,230.363c-41.7816-2.0387-88.0956,6.2687-135.8909,24.1237l120.81,128.6121c17.7638-49.826,26.3986-98.246,25.0962-142.0739A10.7738,10.7738,0,0,0,848.8043,230.363Z"
                style="fill: none; stroke: rgb(255, 255, 255); stroke-miterlimit: 10; stroke-width: 3px;"></path>
            <path class="cls-2"
                d="M354.42,731.02,335.99,711.4c-15,1.16-61.41,12.04-83.21,100.83a379.9223,379.9223,0,0,0-8.75,52.74l.24.26a321.1145,321.1145,0,0,0,56.5-9.97c79.48-22.21,90.08-68.74,91.38-84.08l-13.09-13.94"
                style="fill: none; stroke: rgb(255, 255, 255); stroke-miterlimit: 10; stroke-width: 3px;"></path>
            <path class="cls-2"
                d="M617.58,387.41a59.1718,59.1718,0,0,1,43.83-18.3,61.4024,61.4024,0,0,1,43.93,19.79l.61.65c23.57,25.76,23.39,66.74-.42,91.39-24.13,24.97-63.5,24.33-87.75-1.46l-.62-.65C593.59,453.08,593.77,412.06,617.58,387.41ZM384.56,543c2.08-3.65,4.22-7.31,6.39-10.98q9.9-16.725,19.97-32.1a732.117,732.117,0,0,1,74.97-90.94c66.53-68.74,140.52-119.11,211.96-148.58l.01.01L827.85,398.79l.01.01c-18.85,48.02-46.01,97.03-80.79,144.2M390.25,749.78l8.96,9.54,19.25,20.64,16.27-16.78q4.05,7.17,7.65,14.49,11.79-3.975,23.73-8.76a809.6333,809.6333,0,0,0,97.97-52.59q16.095-10.11,30.92-20.44v.01a693.9085,693.9085,0,0,0,54.17-44.56m-316.17,0q-1.245,3.66-2.42,7.31,6.93,3.9,13.69,8.24l-16.25,16.8,19.39,20.5,14.73,15.68"
                style="fill: none; stroke: rgb(255, 255, 255); stroke-miterlimit: 10; stroke-width: 3px;"></path>
            <path class="cls-2"
                d="M479.2493,794.3157a11.0969,11.0969,0,0,1,5.7884-13.1166,781.1338,781.1338,0,0,0,87.62-47.747q8.3874-5.2734,16.4305-10.6079c6.8019-4.508,15.6692.3428,16.0683,8.7687,3.0617,64.6373-18.894,129.8772-65.9035,178.371a220.1922,220.1922,0,0,1-61.0913,44.555,3.565,3.565,0,0,1-4.7563-4.6179C492,900.4874,493.9567,845.479,479.2493,794.3157Z"
                style="fill: none; stroke: rgb(255, 255, 255); stroke-miterlimit: 10; stroke-width: 3px;"></path>
            <line class="cls-2" x1="399.21" y1="759.32" x2="390.25" y2="749.78"
                style="fill: none; stroke: rgb(255, 255, 255); stroke-miterlimit: 10; stroke-width: 3px;"></line>
            <line class="cls-2" x1="362.14" y1="719.86" x2="347.41" y2="704.18"
                style="fill: none; stroke: rgb(255, 255, 255); stroke-miterlimit: 10; stroke-width: 3px;"></line>
            <path class="cls-2"
                d="M218.14,543a215.8041,215.8041,0,0,1,158.71-54.44c8.03.55,12.52,9.92,8.12,16.98q-5.205,8.355-10.37,17.06-6.12,10.35-11.72,20.4"
                style="fill: none; stroke: rgb(255, 255, 255); stroke-miterlimit: 10; stroke-width: 3px;"></path>
            <path class="cls-2" d="M243.48,608.29q3.285-.03,6.58.03"
                style="fill: none; stroke: rgb(255, 255, 255); stroke-miterlimit: 10; stroke-width: 3px;"></path>
            <path class="cls-3"
                d="M499.63,651.33q-46.38,55.515-109.38,98.45-5.52,3.795-11.19,7.46a642.9083,642.9083,0,0,1-60.97,34.92,644.1115,644.1115,0,0,1,36.33-61.14q3.81-5.64,7.72-11.16a548.1394,548.1394,0,0,1,57.12-68.53"
                style="fill: none; stroke: rgb(255, 255, 255); stroke-miterlimit: 10; stroke-width: 9px;"></path>
            <path class="cls-4"
                d="M628.41,468.4861c-18.3656-19.531-18.4305-50.7788-.1553-69.7067,18.275-18.9073,48.0871-18.41,66.4527,1.1209,18.3462,19.51,18.4111,50.7786.146,69.6757C676.5585,488.5035,646.7561,487.9965,628.41,468.4861Z"
                style="fill: none; stroke: #fff; stroke-width: 9px;"></path>
            <path class="cls-4"
                d="M848.8043,230.363c-41.7816-2.0387-88.0956,6.2687-135.8909,24.1237l120.81,128.6121c17.7638-49.826,26.3986-98.246,25.0962-142.0739A10.7738,10.7738,0,0,0,848.8043,230.363Z"
                style="fill: none; stroke: #fff; stroke-width: 9px;"></path>
            <path class="cls-4"
                d="M354.42,731.02,335.99,711.4c-15,1.16-61.41,12.04-83.21,100.83a379.9223,379.9223,0,0,0-8.75,52.74l.24.26a321.1145,321.1145,0,0,0,56.5-9.97c79.48-22.21,90.08-68.74,91.38-84.08l-13.09-13.94"
                style="fill: none; stroke: #fff; stroke-width: 9px;"></path>
            <path class="cls-4"
                d="M617.58,387.41a59.1718,59.1718,0,0,1,43.83-18.3,61.4024,61.4024,0,0,1,43.93,19.79l.61.65c23.57,25.76,23.39,66.74-.42,91.39-24.13,24.97-63.5,24.33-87.75-1.46l-.62-.65C593.59,453.08,593.77,412.06,617.58,387.41ZM384.56,543c2.08-3.65,4.22-7.31,6.39-10.98q9.9-16.725,19.97-32.1a732.117,732.117,0,0,1,74.97-90.94c66.53-68.74,140.52-119.11,211.96-148.58l.01.01L827.85,398.79l.01.01c-18.85,48.02-46.01,97.03-80.79,144.2M390.25,749.78l8.96,9.54,19.25,20.64,16.27-16.78q4.05,7.17,7.65,14.49,11.79-3.975,23.73-8.76a809.6333,809.6333,0,0,0,97.97-52.59q16.095-10.11,30.92-20.44v.01a693.9085,693.9085,0,0,0,54.17-44.56m-316.17,0q-1.245,3.66-2.42,7.31,6.93,3.9,13.69,8.24l-16.25,16.8,19.39,20.5,14.73,15.68"
                style="fill: none; stroke: #fff; stroke-width: 9px;"></path>
            <path class="cls-4"
                d="M479.2493,794.3157a11.0969,11.0969,0,0,1,5.7884-13.1166,781.1338,781.1338,0,0,0,87.62-47.747q8.3874-5.2734,16.4305-10.6079c6.8019-4.508,15.6692.3428,16.0683,8.7687,3.0617,64.6373-18.894,129.8772-65.9035,178.371a220.1922,220.1922,0,0,1-61.0913,44.555,3.565,3.565,0,0,1-4.7563-4.6179C492,900.4874,493.9567,845.479,479.2493,794.3157Z"
                style="fill: none; stroke: #fff; stroke-width: 9px;"></path>
            <line class="cls-4" x1="399.21" y1="759.32" x2="390.25" y2="749.78"
                style="fill: none; stroke: #fff; stroke-width: 9px;"></line>
            <line class="cls-4" x1="362.14" y1="719.86" x2="347.41" y2="704.18"
                style="fill: none; stroke: #fff; stroke-width: 9px;"></line>
            <path class="cls-4"
                d="M218.14,543a215.8041,215.8041,0,0,1,158.71-54.44c8.03.55,12.52,9.92,8.12,16.98q-5.205,8.355-10.37,17.06-6.12,10.35-11.72,20.4"
                style="fill: none; stroke: #fff; stroke-width: 9px;"></path>
            <path class="cls-4" d="M243.48,608.29q3.285-.03,6.58.03"
                style="fill: none; stroke: #fff; stroke-width: 9px;"></path>
            <path class="cls-4"
                d="M499.63,651.33q-46.38,55.515-109.38,98.45-5.52,3.795-11.19,7.46a642.9083,642.9083,0,0,1-60.97,34.92,644.1115,644.1115,0,0,1,36.33-61.14q3.81-5.64,7.72-11.16a548.1394,548.1394,0,0,1,57.12-68.53"
                style="fill: none; stroke: #fff; stroke-width: 9px;"></path>
        </g>
        <g id="startup_the_engine" data-name="startup the engine">
            <rect class="cls-5" x="106.1656" y="542.9972" width="867.6688" height="108.3288" rx="28.6988"
                style="stroke: #fff; stroke-miterlimit: 10; stroke-width: 7px; fill: #121212;">
            </rect>
            <path fill="#fff"
                d="M231.0027,585.96l1.98-5.95h-11.88l6.34-17.74h-6.58l-6.49,17.9h-10.14l6.49-17.9h-6.57l-6.42,17.9h-13.15l-1.9,5.63h13.15l-3.8,10.61h-12.28l-2.06,5.79h12.36l-6.5,17.74h6.73l6.18-17.9h10.46l-6.5,17.9h6.58l6.26-17.9h12.67l2.06-5.63h-12.59l3.48-10.45Zm-22.18,10.53h-10.38l3.81-10.69h10.3Z">
            </path>
            <path fill="#fff"
                d="M281.9227,576.61a1.6868,1.6868,0,0,0,.36.47,1.8482,1.8482,0,0,0,.47.36,1.0628,1.0628,0,0,0,.48.12h4.44a1.0729,1.0729,0,0,0,.87-.48,4.4,4.4,0,0,0,.2695-.47,1.0633,1.0633,0,0,0,.12-.48V565.91a2.3153,2.3153,0,0,0-.35-1.15,4.6908,4.6908,0,0,0-.88-1.06,4.1248,4.1248,0,0,0-1.14-.76,3.2587,3.2587,0,0,0-1.2695-.27h-40.8a2.9646,2.9646,0,0,0-1.43.39,4.7272,4.7272,0,0,0-1.22.99,6.118,6.118,0,0,0-.88,1.31,3.2325,3.2325,0,0,0-.35,1.42v24.56a2.3923,2.3923,0,0,0,.35,1.23,3.7612,3.7612,0,0,0,.92,1.03,6.552,6.552,0,0,0,1.18.75,2.8773,2.8773,0,0,0,1.27.32h31.85a1.3482,1.3482,0,0,1,.39.08.8591.8591,0,0,1,.4.28,3.1253,3.1253,0,0,1,.28.39.856.856,0,0,1,.12.44v16.32a.7952.7952,0,0,1-.12.43,1.9431,1.9431,0,0,1-.32.4,1.0968,1.0968,0,0,1-.44.28,1.5015,1.5015,0,0,1-.47.08h-27.01a1.0639,1.0639,0,0,1-.48-.12,1.2539,1.2539,0,0,1-.4-.32,2.3147,2.3147,0,0,1-.27-.47,1.339,1.339,0,0,1-.12-.52v-5.78a1.0518,1.0518,0,0,0-.2-.6,4.2412,4.2412,0,0,0-.44-.51,1.463,1.463,0,0,0-.55-.36,1.7574,1.7574,0,0,0-.63-.12h-3.65a1.468,1.468,0,0,0-.63.16,1.6844,1.6844,0,0,0-.56.48,3.5925,3.5925,0,0,0-.39.63,1.3425,1.3425,0,0,0-.16.63v9.75a2.79,2.79,0,0,0,.36,1.31,4.0315,4.0315,0,0,0,.99,1.22,5.2949,5.2949,0,0,0,1.38.88,3.7733,3.7733,0,0,0,1.47.31h40.95a2.4282,2.4282,0,0,0,1.15-.31,3.9021,3.9021,0,0,0,1.03-.8,4.8212,4.8212,0,0,0,.76-1.11,2.6268,2.6268,0,0,0,.31-1.18v-24.8a2.8976,2.8976,0,0,0-.35-1.31,4.9659,4.9659,0,0,0-.88-1.19,4.377,4.377,0,0,0-1.14-.83,2.8581,2.8581,0,0,0-1.2695-.31h-36.6a1.0128,1.0128,0,0,1-.64-.28.7933.7933,0,0,1-.31-.6V570.51a1.688,1.688,0,0,1,.08-.52,1.7542,1.7542,0,0,1,.27-.55,1.833,1.833,0,0,1,.44-.44.9148.9148,0,0,1,.48-.16h31.13a1.3353,1.3353,0,0,1,.55.16,3.38,3.38,0,0,1,.56.36,1.6035,1.6035,0,0,1,.39.47,1.1706,1.1706,0,0,1,.16.6v5.7A1.0634,1.0634,0,0,0,281.9227,576.61Z">
            </path>
            <path fill="#fff"
                d="M317.0027,581.84a3.3048,3.3048,0,0,0-.4-.6,2.4779,2.4779,0,0,0-.55-.47,1.257,1.257,0,0,0-.64-.2h-8.63V570.43a1.5242,1.5242,0,0,0-.48-1.11,1.6048,1.6048,0,0,0-1.19-.48h-3.96a1.5234,1.5234,0,0,0-1.11.48,1.5527,1.5527,0,0,0-.47,1.11v10.14h-3.57a.6954.6954,0,0,0-.35.12.9747.9747,0,0,0-.32.28,1.3217,1.3217,0,0,0-.2.35,1.0281,1.0281,0,0,0-.08.36v4.2a.7965.7965,0,0,0,.12.43,2.2488,2.2488,0,0,0,.32.4,1.3626,1.3626,0,0,0,.39.28,1.2729,1.2729,0,0,0,.44.08h3.25v31.29a1.6055,1.6055,0,0,0,1.58,1.58h11.01a1.2782,1.2782,0,0,0,1.03-.47,1.785,1.785,0,0,0,.4-1.19v-3.09a1.3415,1.3415,0,0,0-.12-.52,1.4006,1.4006,0,0,0-.32-.47,1.6616,1.6616,0,0,0-.43-.32,1.0665,1.0665,0,0,0-.48-.12h-4.27a.8309.8309,0,0,1-.44-.12,2.1669,2.1669,0,0,1-.4-.31,1.0745,1.0745,0,0,1-.27-.44,1.1185,1.1185,0,0,1-.08-.39V592.29h9.03a.8435.8435,0,0,0,.47-.15,3.1281,3.1281,0,0,0,.44-.36,1.5009,1.5009,0,0,0,.32-.48,1.2427,1.2427,0,0,0,.11-.51v-8.32A1.4614,1.4614,0,0,0,317.0027,581.84Z">
            </path>
            <path fill="#fff"
                d="M363.2825,614.08a2.3211,2.3211,0,0,0-.4-.44,2.0359,2.0359,0,0,0-.51-.31,1.339,1.339,0,0,0-.52-.12h-1.98a.9606.9606,0,0,1-.51-.12,1.2257,1.2257,0,0,1-.36-.36,4.1472,4.1472,0,0,1-.28-.51,1.6863,1.6863,0,0,1-.11-.6v-28.2a2.3527,2.3527,0,0,0-.24-.99,3.5573,3.5573,0,0,0-.67-.95,4.0335,4.0335,0,0,0-.96-.71,2.0176,2.0176,0,0,0-.99-.28h-30.1a1.2,1.2,0,0,0-.55.16,2.9866,2.9866,0,0,0-.56.35,1.79,1.79,0,0,0-.39.48,1.0369,1.0369,0,0,0-.16.52v3.72a.64.64,0,0,0,.16.43,2.0868,2.0868,0,0,0,.39.4,1.3877,1.3877,0,0,0,.5195.28,1.9341,1.9341,0,0,0,.51.08h25.43a1.2934,1.2934,0,0,1,.71.27.7674.7674,0,0,1,.4.6v4.67a.7728.7728,0,0,1-.24.56.74.74,0,0,1-.55.23h-23.93a3.0829,3.0829,0,0,0-1.15.24,4.107,4.107,0,0,0-1.1.68,3.5829,3.5829,0,0,0-.84.99,2.341,2.341,0,0,0-.31,1.18v20.44a2.4258,2.4258,0,0,0,.31,1.15,3.3457,3.3457,0,0,0,.84,1.03,4.4614,4.4614,0,0,0,1.14.71,2.9274,2.9274,0,0,0,1.19.28h33.91a2.1167,2.1167,0,0,0,.67-.12,2.4481,2.4481,0,0,0,.68-.35,2.2683,2.2683,0,0,0,.51-.52,1,1,0,0,0,.2-.59v-3.81A.83.83,0,0,0,363.2825,614.08Zm-11.25-2.3a1.2312,1.2312,0,0,1-1.19,1.19h-14.1a1.13,1.13,0,0,1-.83-.36,1.1143,1.1143,0,0,1-.36-.83V600.93a1.1142,1.1142,0,0,1,.36-.83,1.13,1.13,0,0,1,.83-.36h14.1a1.2312,1.2312,0,0,1,1.19,1.19Z">
            </path>
            <path fill="#fff"
                d="M396.6526,582.23a2.6408,2.6408,0,0,0-.67-.83,5.033,5.033,0,0,0-.91-.59,2.12,2.12,0,0,0-.95-.24h-23.69a2.4,2.4,0,0,0-1.11.28,4.392,4.392,0,0,0-1.03.71,3.4767,3.4767,0,0,0-.75.95,2.1614,2.1614,0,0,0-.28,1.07v34.06a2.069,2.069,0,0,0,.16.8,2.4609,2.4609,0,0,0,.43.71,3.0735,3.0735,0,0,0,.64.55,1.3345,1.3345,0,0,0,.75.24h7.53a1.4585,1.4585,0,0,0,.75-.2,2.78,2.78,0,0,0,1.11-1.11,1.39,1.39,0,0,0,.2-.67V604.18a5.4259,5.4259,0,0,0-.2-1.43,11.4061,11.4061,0,0,0-.48-1.39,8.9177,8.9177,0,0,0-.67-1.3c-.27-.42-.53-.86-.79-1.31-.27-.45-.53-.9-.8-1.35-.26-.44-.5-.89-.71-1.34a6.5616,6.5616,0,0,1-.47-1.35,5.79,5.79,0,0,1-.16-1.39v-5.46a1.1273,1.1273,0,0,1,.08-.4,1.1808,1.1808,0,0,1,.2-.39,1.1992,1.1992,0,0,1,.2695-.28.6566.6566,0,0,1,.4-.12h12.83a1.1943,1.1943,0,0,1,.76.28.77.77,0,0,1,.35.59v3.72a1.07,1.07,0,0,0,.12.48,1.0579,1.0579,0,0,0,.36.4,4.1206,4.1206,0,0,0,.51.27,1.3409,1.3409,0,0,0,.52.12h4.67a.967.967,0,0,0,.56-.16,1.3551,1.3551,0,0,0,.39-.43,2.2125,2.2125,0,0,0,.24-.6,2.7018,2.7018,0,0,0,.08-.63v-7.53A2.1258,2.1258,0,0,0,396.6526,582.23Z">
            </path>
            <path fill="#fff"
                d="M422.8123,581.84a3.2222,3.2222,0,0,0-.39-.6,2.5475,2.5475,0,0,0-.56-.47,1.1967,1.1967,0,0,0-.63-.2h-8.64V570.43a1.5531,1.5531,0,0,0-.47-1.11,1.6207,1.6207,0,0,0-1.19-.48h-3.96a1.5078,1.5078,0,0,0-1.11.48,1.5246,1.5246,0,0,0-.48,1.11v10.14h-3.56a.6972.6972,0,0,0-.36.12.9416.9416,0,0,0-.31.28,1.3384,1.3384,0,0,0-.2.35.842.842,0,0,0-.08.36v4.2a.7965.7965,0,0,0,.12.43,2.1789,2.1789,0,0,0,.31.4,1.3982,1.3982,0,0,0,.4.28,1.2336,1.2336,0,0,0,.44.08h3.24v31.29a1.6231,1.6231,0,0,0,1.59,1.58h11.01a1.3052,1.3052,0,0,0,1.03-.47,1.837,1.837,0,0,0,.4-1.19v-3.09a1.3474,1.3474,0,0,0-.12-.52,1.5722,1.5722,0,0,0-.32-.47,1.71,1.71,0,0,0-.44-.32.9963.9963,0,0,0-.47-.12h-4.28a.7985.7985,0,0,1-.43-.12,1.9,1.9,0,0,1-.4-.31,1.1,1.1,0,0,1-.28-.44,1.4042,1.4042,0,0,1-.08-.39V592.29h9.03a.8985.8985,0,0,0,.48-.15,3.8606,3.8606,0,0,0,.44-.36,1.466,1.466,0,0,0,.31-.48,1.257,1.257,0,0,0,.12-.51v-8.32A1.3366,1.3366,0,0,0,422.8123,581.84Z">
            </path>
            <path fill="#fff"
                d="M479.2024,563.26a2.3131,2.3131,0,0,0-.48-.36,2.228,2.228,0,0,0-.63-.23,2.4839,2.4839,0,0,0-.6-.08h-4.11a1.4726,1.4726,0,0,0-.52.11,1.6162,1.6162,0,0,0-.48.32,2.1669,2.1669,0,0,0-.31.4.9621.9621,0,0,0-.12.51v47.69a.8368.8368,0,0,1-.16.48,3.9618,3.9618,0,0,1-.36.47,1.3131,1.3131,0,0,1-.43.36,1.0651,1.0651,0,0,1-.48.12h-27.09a1.4866,1.4866,0,0,1-.71-.16,1.79,1.79,0,0,1-.56-.43,2.79,2.79,0,0,1-.39-.6,1.3352,1.3352,0,0,1-.16-.63V595.62a5.0534,5.0534,0,0,0-.16-1.23,7.4977,7.4977,0,0,0-.44-1.19c-.18-.39-.38-.77-.59-1.14s-.44-.73-.67-1.07q-.36-.5249-.72-.99c-.23-.32-.43-.61-.59-.87a8.0383,8.0383,0,0,1-.4-.76,1.6372,1.6372,0,0,1-.16-.59V564.01a1.1545,1.1545,0,0,0-.11-.47c-.08-.16-.18-.32-.28-.48a1.0528,1.0528,0,0,0-.4-.36,1.1529,1.1529,0,0,0-.47-.11h-4.68a1.2059,1.2059,0,0,0-.59.15,1.5561,1.5561,0,0,0-.48.44,4.3433,4.3433,0,0,0-.35.59,1.4034,1.4034,0,0,0-.16.64v52.13a2.1349,2.1349,0,0,0,.43,1.3,4.54,4.54,0,0,0,.92.94,1.0552,1.0552,0,0,0,.11.09,4.7588,4.7588,0,0,0,1.35.68,5.1084,5.1084,0,0,0,1.47.23h41.59a2.3829,2.3829,0,0,0,1.22-.35,3.5755,3.5755,0,0,0,1.03-.95,4.93,4.93,0,0,0,.68-1.31,4.2271,4.2271,0,0,0,.24-1.35V563.77A.6919.6919,0,0,0,479.2024,563.26Z">
            </path>
            <path fill="#fff"
                d="M521.9627,582.83a4.1993,4.1993,0,0,0-.84-1.19,5.0626,5.0626,0,0,0-1.14-.87,2.5849,2.5849,0,0,0-1.27-.36h-27.17a3.589,3.589,0,0,0-1.35.28,4.75,4.75,0,0,0-1.31.75,4.9988,4.9988,0,0,0-.99,1.07,2.341,2.341,0,0,0-.39,1.31v52.12a1.4959,1.4959,0,0,0,.15.64,1.78,1.78,0,0,0,.44.55,2.9275,2.9275,0,0,0,.59.4,1.5146,1.5146,0,0,0,.64.16h7.44a1.3427,1.3427,0,0,0,.52-.12,3.1437,3.1437,0,0,0,.55-.32,1.8119,1.8119,0,0,0,.44-.43.9192.9192,0,0,0,.16-.48V621.37a1.009,1.009,0,0,1,.24-.68,2.75,2.75,0,0,1,.59-.51,1.6849,1.6849,0,0,1,.75-.28c.27-.02.53-.04.79-.04h18.46a2.3593,2.3593,0,0,0,1.03-.27,4.3461,4.3461,0,0,0,.99-.68,3.3725,3.3725,0,0,0,.72-.91,2.27,2.27,0,0,0,.27-1.07V584.05A2.9258,2.9258,0,0,0,521.9627,582.83Zm-6.58,28.95a1.6239,1.6239,0,0,1-1.66,1.67h-17.59a1.5235,1.5235,0,0,1-1.11-.48,1.5963,1.5963,0,0,1-.47-1.19V588.57a1.6059,1.6059,0,0,1,1.58-1.58h17.59a1.6124,1.6124,0,0,1,1.19.47,1.5528,1.5528,0,0,1,.47,1.11Z">
            </path>
            <path fill="#fff"
                d="M577.0325,564.13a4.2886,4.2886,0,0,0-.75-.79,3.6524,3.6524,0,0,0-.95-.56,2.7551,2.7551,0,0,0-.99-.19h-44.6a1.84,1.84,0,0,0-.56.11,1.9894,1.9894,0,0,0-.55.32,2.0635,2.0635,0,0,0-.4.44,1.0136,1.0136,0,0,0-.16.55v3.01a1.0483,1.0483,0,0,0,.16.56,1.3479,1.3479,0,0,0,.4.39,2.58,2.58,0,0,0,.55.28,1.6147,1.6147,0,0,0,.56.12h17.11a1.5561,1.5561,0,0,1,.75.2,2.0593,2.0593,0,0,1,.64.55,4.8962,4.8962,0,0,1,.47.75,1.82,1.82,0,0,1,.2.8v47.21a1.64,1.64,0,0,0,.16.68,3.7553,3.7553,0,0,0,.39.67,2.0691,2.0691,0,0,0,.56.51,1.25,1.25,0,0,0,.71.2h4.04a.9831.9831,0,0,0,.6-.2,1.7784,1.7784,0,0,0,.47-.51,3.4137,3.4137,0,0,0,.32-.67,2.1684,2.1684,0,0,0,.12-.68V576.45a1.2044,1.2044,0,0,1,.23-.71,2.2086,2.2086,0,0,1,.64-.56,3.8322,3.8322,0,0,1,.87-.39,2.6817,2.6817,0,0,1,.87-.16h15.92a2.35,2.35,0,0,0,.84-.16,2.9306,2.9306,0,0,0,.83-.48,2.6474,2.6474,0,0,0,.63-.71,1.5082,1.5082,0,0,0,.24-.79v-7.37A1.6494,1.6494,0,0,0,577.0325,564.13Z">
            </path>
            <path fill="#fff"
                d="M618.3328,582.87a4.281,4.281,0,0,0-.83-1.15,4.3654,4.3654,0,0,0-1.15-.83,2.8705,2.8705,0,0,0-1.2695-.32h-23.69a1.2579,1.2579,0,0,1-.51-.12,1.8721,1.8721,0,0,1-.52-.32,1.1416,1.1416,0,0,1-.35-.47,1.3384,1.3384,0,0,1-.12-.52V564.41a1.5382,1.5382,0,0,0-.12-.6,3.5121,3.5121,0,0,0-.32-.55,1.8,1.8,0,0,0-.43-.44,1.0426,1.0426,0,0,0-.56-.15h-3.88a1.269,1.269,0,0,0-.6.15,1.8082,1.8082,0,0,0-.47.4,1.9922,1.9922,0,0,0-.32.55,1.8513,1.8513,0,0,0-.12.64v53.71a1.719,1.719,0,0,0,.16.67,1.6708,1.6708,0,0,0,.44.6,2.5124,2.5124,0,0,0,.59.39,1.3477,1.3477,0,0,0,.64.16h7.76a1.34,1.34,0,0,0,.63-.16,2.8068,2.8068,0,0,0,.6-.39,1.648,1.648,0,0,0,.43-.6,1.5633,1.5633,0,0,0,.16-.67V588.65a1.35,1.35,0,0,1,.12-.52,1.5282,1.5282,0,0,1,.79-.79,1.3467,1.3467,0,0,1,.52-.12h14.02a1.2706,1.2706,0,0,1,.44.08,2.034,2.034,0,0,1,.39.24,1.54,1.54,0,0,1,.32.36.8.8,0,0,1,.12.43v30.03a1.1148,1.1148,0,0,0,.16.59,1.8885,1.8885,0,0,0,.43.52,1.93,1.93,0,0,0,.6.35,1.7625,1.7625,0,0,0,.63.12h3.88a1.6686,1.6686,0,0,0,.56-.12,2.0015,2.0015,0,0,0,.59-.35,2.1262,2.1262,0,0,0,.44-.52,1.2025,1.2025,0,0,0,.15-.59V584.13A2.7868,2.7868,0,0,0,618.3328,582.87Z">
            </path>
            <path fill="#fff"
                d="M638.3924,601.17a.9923.9923,0,0,1,.71-.32h21.79a1.81,1.81,0,0,0,.79-.2,3.5351,3.5351,0,0,0,.75-.51,3.4468,3.4468,0,0,0,.6-.68,1.3521,1.3521,0,0,0,.23-.75V583.26a2.0343,2.0343,0,0,0-.31-1.07,3.5517,3.5517,0,0,0-.76-.87,4.0594,4.0594,0,0,0-.99-.59,2.5981,2.5981,0,0,0-1.03-.24h-30.34a3.035,3.035,0,0,0-1.07.2,4.0613,4.0613,0,0,0-.99.55,3.0879,3.0879,0,0,0-.75.83,1.859,1.859,0,0,0-.28.96v34.22a2.0177,2.0177,0,0,0,.28.99,3.0072,3.0072,0,0,0,.71.87,3.757,3.757,0,0,0,.99.59,2.78,2.78,0,0,0,1.11.24h31.14a1.6839,1.6839,0,0,0,.79-.2,2.3059,2.3059,0,0,0,.71-.55,5.6263,5.6263,0,0,0,.56-.75,1.6279,1.6279,0,0,0,.23-.8v-8.71a.9567.9567,0,0,0-.11-.44,1.9436,1.9436,0,0,0-.28-.35,1.0335,1.0335,0,0,0-.36-.24,1.22,1.22,0,0,0-.43-.08h-5.15a.9158.9158,0,0,0-.64.32.9.9,0,0,0-.31.63v3.96a1.0286,1.0286,0,0,1-.8.8h-16.4a.611.611,0,0,1-.51-.28.9443.9443,0,0,1-.2-.52V601.88A.9921.9921,0,0,1,638.3924,601.17Zm-.32-13.79a.7444.7444,0,0,1,.2-.47.6253.6253,0,0,1,.51-.24h16.32a.6927.6927,0,0,1,.4805.24.6732.6732,0,0,1,.24.47v6.58a.6268.6268,0,0,1-.24.51.77.77,0,0,1-.4805.2h-16.32a.6847.6847,0,0,1-.71-.71Z">
            </path>
            <path fill="#fff"
                d="M707.7327,613.92a2.0121,2.0121,0,0,0-.56-.39,4.4933,4.4933,0,0,0-.67-.28,2.1688,2.1688,0,0,0-.68-.12h-23.05a1.4935,1.4935,0,0,1-.47-.08,1.8014,1.8014,0,0,1-.48-.24,1.0285,1.0285,0,0,1-.36-.39,1.063,1.063,0,0,1-.12-.48V596.1a1.3381,1.3381,0,0,1,.12-.52,1.5667,1.5667,0,0,1,.32-.47,1.4973,1.4973,0,0,1,.48-.32,1.26,1.26,0,0,1,.51-.12h22.66a1.195,1.195,0,0,0,.63-.2,3.7457,3.7457,0,0,0,.6-.47,2.3108,2.3108,0,0,0,.43-.64,1.5641,1.5641,0,0,0,.16-.67v-3.01a.8278.8278,0,0,0-.2-.55,2.275,2.275,0,0,0-.43-.4,2.648,2.648,0,0,0-.56-.28,1.76,1.76,0,0,0-.63-.12h-26.7a.9956.9956,0,0,1-.47-.12,1.6648,1.6648,0,0,1-.44-.31,1.71,1.71,0,0,1-.32-.44,1.057,1.057,0,0,1-.12-.47v-16.8a.7965.7965,0,0,1,.12-.43,2.6576,2.6576,0,0,1,.28-.4.9556.9556,0,0,1,.36-.28,1.1756,1.1756,0,0,1,.43-.08h26.86a1.5905,1.5905,0,0,0,.67-.16,2.4308,2.4308,0,0,0,.64-.39,1.827,1.827,0,0,0,.43-.56,1.3425,1.3425,0,0,0,.16-.63v-3.49a.8468.8468,0,0,0-.2-.55,1.1831,1.1831,0,0,0-.51-.36,4.5175,4.5175,0,0,0-.68-.19,2.3537,2.3537,0,0,0-.59-.08h-31.61a2.9384,2.9384,0,0,0-1.11.23,3.18,3.18,0,0,0-.99.68,3.6651,3.6651,0,0,0-.71.99,2.4045,2.4045,0,0,0-.28,1.11v51.89a1.7634,1.7634,0,0,0,.28.99,2.442,2.442,0,0,0,.75.75,4.7235,4.7235,0,0,0,1.03.51,2.8869,2.8869,0,0,0,1.03.2h33.03a.8329.8329,0,0,0,.44-.12,1.4855,1.4855,0,0,0,.36-.31,2.1517,2.1517,0,0,0,.27-.44,1.057,1.057,0,0,0,.12-.47v-4.12A.8049.8049,0,0,0,707.7327,613.92Z">
            </path>
            <path fill="#fff"
                d="M751.3226,583.03a5.3436,5.3436,0,0,0-.28-1.23,1.5989,1.5989,0,0,0-.64-.8,3.0837,3.0837,0,0,0-1.06-.39,8.3343,8.3343,0,0,0-1.51-.12h-29.95a3.2309,3.2309,0,0,0-2.25.59,2.6777,2.6777,0,0,0-.6,1.95v35.8a1.2236,1.2236,0,0,0,.08.44,1.032,1.032,0,0,0,.24.36.9651.9651,0,0,0,.36.23.832.832,0,0,0,.35.08h9.19a1.0484,1.0484,0,0,0,.44-.08,1.1466,1.1466,0,0,0,.39-.27,2.6481,2.6481,0,0,0,.32-.4.8294.8294,0,0,0,.12-.44V604.26a2.6677,2.6677,0,0,0-.2-1.03,7.5529,7.5529,0,0,0-.47-.95,8.0113,8.0113,0,0,0-.64-.92c-.24-.28-.49-.58-.75-.87q-.405-.435-.75-.87a10.2169,10.2169,0,0,1-.68-.91,3.7314,3.7314,0,0,1-.47-.99,3.2007,3.2007,0,0,1-.16-.99v-9.35a.4488.4488,0,0,1,.12-.35.5408.5408,0,0,1,.32-.16,3.4612,3.4612,0,0,1,.67-.04h19.8a2.4751,2.4751,0,0,1,.52.04.5743.5743,0,0,1,.32.16.6149.6149,0,0,1,.15.39,5.0643,5.0643,0,0,1,.04.75v30.58a.8294.8294,0,0,0,.12.44,2.6544,2.6544,0,0,0,.32.4,1.0683,1.0683,0,0,0,.44.27,1.0417,1.0417,0,0,0,.39.08h5.07a.584.584,0,0,0,.2-.04.3455.3455,0,0,0,.2-.16,3.35,3.35,0,0,0,.2-.39,1.9792,1.9792,0,0,0,.11-.75Z">
            </path>
            <path fill="#fff"
                d="M797.1224,581.52a2.0864,2.0864,0,0,0-.23-.48,1.1161,1.1161,0,0,0-.4-.35,1.055,1.055,0,0,0-.47-.12h-33.75a3.1237,3.1237,0,0,0-1.03.2,3.1889,3.1889,0,0,0-.99.55,3.3354,3.3354,0,0,0-.72.83,1.9348,1.9348,0,0,0-.27.95v23.77a1.1279,1.1279,0,0,0,.24.71,2.6,2.6,0,0,0,.63.6,2.7349,2.7349,0,0,0,.83.39,3.1471,3.1471,0,0,0,.83.12h3.57v6.26h-3.25a2.7793,2.7793,0,0,0-.99.2,3.2125,3.2125,0,0,0-.91.51,3.5524,3.5524,0,0,0-.68.72,1.4928,1.4928,0,0,0-.27.87v18.22a1.51,1.51,0,0,0,.24.79,2.3386,2.3386,0,0,0,.63.71,2.8467,2.8467,0,0,0,.87.48,2.682,2.682,0,0,0,.87.16h29.15a1.7378,1.7378,0,0,0,.84-.24,2.9266,2.9266,0,0,0,.75-.59,2.3131,2.3131,0,0,0,.47-.84,2.5982,2.5982,0,0,0,.16-.87V617.33a1.7172,1.7172,0,0,0-.06-.44,1.485,1.485,0,0,0-.13-.39,3.5484,3.5484,0,0,0-.52-.8,2.2771,2.2771,0,0,0-.75-.55,2.0533,2.0533,0,0,0-.83-.2h-18.86v-6.26h17.75a1.1372,1.1372,0,0,0,.59-.16,2.63,2.63,0,0,0,.56-.43,1.722,1.722,0,0,0,.39-.6,1.7562,1.7562,0,0,0,.12-.63V586.83h4.75a.6978.6978,0,0,0,.36-.12.9816.9816,0,0,0,.32-.32,2.07,2.07,0,0,0,.19-.43,1.3441,1.3441,0,0,0,.08-.48V582A1.3434,1.3434,0,0,0,797.1224,581.52Zm-11.8,39.13a1.1091,1.1091,0,0,1,.67.2.6049.6049,0,0,1,.28.52v9.58a.6056.6056,0,0,1-.28.52,1.1089,1.1089,0,0,1-.67.2h-13.62a1.03,1.03,0,0,1-.6-.2.605.605,0,0,1-.28-.52v-9.58a.6043.6043,0,0,1,.28-.52,1.03,1.03,0,0,1,.6-.2Zm-.95-19.4a1.0316,1.0316,0,0,1-.28.71.8631.8631,0,0,1-.67.32h-15.69a.9674.9674,0,0,1-.75-.32,1.0789,1.0789,0,0,1-.28-.71V587.94a1.1036,1.1036,0,0,1,.28-.72.9594.9594,0,0,1,.75-.31h15.69a.8528.8528,0,0,1,.67.31,1.0551,1.0551,0,0,1,.28.72Z">
            </path>
            <path fill="#fff"
                d="M814.3724,602.16a11.7376,11.7376,0,0,0-.51-1.15q-.315-.63-.75-1.35c-.29-.47-.59-.95-.87-1.42-.24-.38-.45-.76-.66-1.15-.06-.1-.12-.21-.18-.32-.26-.5-.5-.98-.71-1.43a11.0919,11.0919,0,0,1-.51-1.26,3.09,3.09,0,0,1-.2-.99V581.92a1.0649,1.0649,0,0,0-.12-.48,2.54,2.54,0,0,0-.28-.44,1.313,1.313,0,0,0-.39-.31,1.0663,1.0663,0,0,0-.48-.12h-4.67a.8329.8329,0,0,0-.4405.12,1.8087,1.8087,0,0,0-.4.35,1.467,1.467,0,0,0-.27.48,1.3435,1.3435,0,0,0-.08.48v36.12a1.1274,1.1274,0,0,0,.24.71,3.8255,3.8255,0,0,0,.55.6,1.919,1.919,0,0,0,.75.39,2.8942,2.8942,0,0,0,.75.12h7.77a1.1142,1.1142,0,0,0,.59-.16,1.8988,1.8988,0,0,0,.52-.43,2.8224,2.8224,0,0,0,.39-.6,1.3349,1.3349,0,0,0,.16-.63V602.99A2.2752,2.2752,0,0,0,814.3724,602.16Zm-4.19-32.84a4.5266,4.5266,0,0,0-.92-1.35,4.591,4.591,0,0,0-1.34-.91,3.8128,3.8128,0,0,0-1.59-.35,3.9586,3.9586,0,0,0-1.66.35,4.26,4.26,0,0,0-2.26,2.26,3.9633,3.9633,0,0,0-.35,1.66,3.817,3.817,0,0,0,.35,1.59,4.3393,4.3393,0,0,0,.91,1.34,4.54,4.54,0,0,0,1.35.92,4.119,4.119,0,0,0,1.66.35,3.9746,3.9746,0,0,0,1.59-.35,4.6234,4.6234,0,0,0,1.34-.92,4.3547,4.3547,0,0,0,.92-1.34,3.9745,3.9745,0,0,0,.35-1.59A4.1194,4.1194,0,0,0,810.1824,569.32Z">
            </path>
            <path fill="#fff"
                d="M857.7728,583.03a5.3421,5.3421,0,0,0-.28-1.23,1.6337,1.6337,0,0,0-.63-.8,3.2226,3.2226,0,0,0-1.07-.39,8.3363,8.3363,0,0,0-1.51-.12h-29.94a3.2426,3.2426,0,0,0-2.26.59,2.6755,2.6755,0,0,0-.6,1.95v35.8a1.2345,1.2345,0,0,0,.08.44,1.0405,1.0405,0,0,0,.24.36,1.0526,1.0526,0,0,0,.36.23.834.834,0,0,0,.35.08h9.19a1.0454,1.0454,0,0,0,.44-.08,1.1372,1.1372,0,0,0,.39-.27,2.109,2.109,0,0,0,.32-.4.8294.8294,0,0,0,.12-.44V604.26a2.6675,2.6675,0,0,0-.2-1.03,7.6216,7.6216,0,0,0-.47-.95,7.9538,7.9538,0,0,0-.64-.92c-.23-.28-.49-.58-.75-.87s-.51-.58-.75-.87a10.31,10.31,0,0,1-.68-.91,3.7314,3.7314,0,0,1-.47-.99,3.2017,3.2017,0,0,1-.16-.99v-9.35a.4488.4488,0,0,1,.12-.35.5437.5437,0,0,1,.32-.16,3.4579,3.4579,0,0,1,.67-.04h19.8a2.41,2.41,0,0,1,.52.04.5727.5727,0,0,1,.32.16.6739.6739,0,0,1,.16.39,7.462,7.462,0,0,1,.03.75v30.58a.8335.8335,0,0,0,.12.44,2.6288,2.6288,0,0,0,.32.4,1.32,1.32,0,0,0,.83.35h5.07a.5861.5861,0,0,0,.2-.04.3446.3446,0,0,0,.2-.16,3.2575,3.2575,0,0,0,.2-.39,1.97,1.97,0,0,0,.12-.75Z">
            </path>
            <path fill="#fff"
                d="M877.4324,601.17a.9925.9925,0,0,1,.71-.32h21.79a1.7764,1.7764,0,0,0,.79-.2,3.3744,3.3744,0,0,0,.76-.51,3.7513,3.7513,0,0,0,.59-.68,1.2856,1.2856,0,0,0,.24-.75V583.26a2.0481,2.0481,0,0,0-.32-1.07,3.519,3.519,0,0,0-.75-.87,4.0656,4.0656,0,0,0-.99-.59,2.64,2.64,0,0,0-1.03-.24h-30.34a2.9946,2.9946,0,0,0-1.07.2,3.7305,3.7305,0,0,0-.99.55,2.982,2.982,0,0,0-.76.83,1.9451,1.9451,0,0,0-.2695.96v34.22a2.1138,2.1138,0,0,0,.2695.99,3.0481,3.0481,0,0,0,.72.87,3.76,3.76,0,0,0,.99.59,2.7758,2.7758,0,0,0,1.11.24h31.13a1.6543,1.6543,0,0,0,.79-.2,2.1967,2.1967,0,0,0,.71-.55,5.6271,5.6271,0,0,0,.56-.75,1.542,1.542,0,0,0,.24-.8v-8.71a.8547.8547,0,0,0-.12-.44,1.5833,1.5833,0,0,0-.28-.35.9476.9476,0,0,0-.36-.24,1.1793,1.1793,0,0,0-.43-.08h-5.15a.9145.9145,0,0,0-.63.32.8755.8755,0,0,0-.32.63v3.96a.7735.7735,0,0,1-.28.52.7992.7992,0,0,1-.51.28h-16.4a.63.63,0,0,1-.52-.28.9471.9471,0,0,1-.2-.52V601.88A.9925.9925,0,0,1,877.4324,601.17Zm-.32-13.79a.7463.7463,0,0,1,.2-.47.6463.6463,0,0,1,.52-.24h16.32a.8568.8568,0,0,1,.71.71v6.58a.626.626,0,0,1-.24.51.7444.7444,0,0,1-.47.2h-16.32a.7175.7175,0,0,1-.52-.2.6938.6938,0,0,1-.2-.51Z">
            </path>
        </g>
        <g id="stars">
            <polygon class="cls-6" fill="#fff"
                points="374.711 440.155 371.775 437.189 367.668 437.926 369.581 434.217 367.61 430.538 371.729 431.212 374.619 428.201 375.251 432.326 379.007 434.144 375.279 436.02 374.711 440.155"
                style="stroke: #fff; stroke-miterlimit: 10; stroke-width: 0.75px;"></polygon>
            <polygon class="cls-6" fill="#fff"
                points="662.953 727.101 660.017 724.135 655.909 724.873 657.823 721.164 655.852 717.485 659.971 718.158 662.861 715.147 663.493 719.273 667.249 721.091 663.521 722.966 662.953 727.101"
                style="stroke: #fff; stroke-miterlimit: 10; stroke-width: 0.75px;"></polygon>
            <polygon class="cls-6" fill="#fff"
                points="628.622 864.407 625.686 861.441 621.578 862.178 623.492 858.469 621.521 854.79 625.64 855.464 628.529 852.453 629.162 856.578 632.918 858.396 629.19 860.272 628.622 864.407"
                style="stroke: #fff; stroke-miterlimit: 10; stroke-width: 0.75px;"></polygon>
            <polygon class="cls-6" fill="#fff"
                points="834.634 486.277 831.698 483.311 827.59 484.048 829.503 480.339 827.533 476.66 831.651 477.334 834.541 474.323 835.173 478.448 838.93 480.266 835.202 482.142 834.634 486.277"
                style="stroke: #fff; stroke-miterlimit: 10; stroke-width: 0.75px;"></polygon>
            <polygon class="cls-6" fill="#fff"
                points="228.962 700.437 226.026 697.471 221.918 698.208 223.832 694.499 221.861 690.82 225.98 691.494 228.869 688.483 229.502 692.608 233.258 694.426 229.53 696.302 228.962 700.437"
                style="stroke: #fff; stroke-miterlimit: 10; stroke-width: 0.75px;"></polygon>
            <polygon class="cls-6" fill="#fff"
                points="554.115 281.746 551.179 278.78 547.071 279.517 548.984 275.809 547.014 272.13 551.133 272.803 554.022 269.792 554.654 273.918 558.411 275.736 554.683 277.611 554.115 281.746"
                style="stroke: #fff; stroke-miterlimit: 10; stroke-width: 0.75px;"></polygon>
            <polygon class="cls-6" fill="#fff"
                points="413.325 339.063 410.389 336.097 406.281 336.835 408.194 333.126 406.224 329.447 410.342 330.121 413.232 327.11 413.864 331.235 417.621 333.053 413.893 334.929 413.325 339.063"
                style="stroke: #fff; stroke-miterlimit: 10; stroke-width: 0.75px;"></polygon>
            <polygon class="cls-6" fill="#fff"
                points="432.85 843.988 429.914 841.022 425.806 841.759 427.719 838.05 425.749 834.372 429.868 835.045 432.757 832.034 433.389 836.159 437.146 837.977 433.418 839.853 432.85 843.988"
                style="stroke: #fff; stroke-miterlimit: 10; stroke-width: 0.75px;"></polygon>
            <polygon class="cls-6" fill="#fff"
                points="800.861 743.734 797.925 740.768 793.817 741.505 795.73 737.796 793.76 734.117 797.878 734.791 800.768 731.78 801.4 735.905 805.157 737.723 801.429 739.599 800.861 743.734"
                style="stroke: #fff; stroke-miterlimit: 10; stroke-width: 0.75px;"></polygon>
        </g>
        <path fill="#fff"
            d="M203.332,432.5312a5.3373,5.3373,0,0,1-.8242-.4384,2.5867,2.5867,0,0,1-.7578-.73,3.5023,3.5023,0,0,1-.44-.8633,1.0962,1.0962,0,0,1,.004-.7891l1.7968-4.4345a4.6161,4.6161,0,0,1,.9434-1.4092,3.2975,3.2975,0,0,1,1.373-.919l69.7911-16.6865-52.668-21.3662a2.9149,2.9149,0,0,1-.8028-.4844,3.8185,3.8185,0,0,1-.623-.6748,2.9469,2.9469,0,0,1-.4141-.7988,1.1071,1.1071,0,0,1,.0039-.7891l1.69-4.163a1.429,1.429,0,0,1,.6016-.7051,2.9905,2.9905,0,0,1,.9375-.3574,4.5949,4.5949,0,0,1,1.0878-.085,3.0255,3.0255,0,0,1,1.0235.2041l58.91,23.8994a9.8491,9.8491,0,0,1,1.0938.5508,5.1868,5.1868,0,0,1,1.0937.8125,4.44,4.44,0,0,1,.73.9287,1.1134,1.1134,0,0,1,.0586,1.0244l-2.1309,5.249a4.8533,4.8533,0,0,1-1.4687,1.9317,6.2518,6.2518,0,0,1-2.2266,1.2041l-65.4765,16.9629,12.0351,4.8818a7.0519,7.0519,0,0,0,1.7657.4531,8.2509,8.2509,0,0,0,1.8867.0284c.623-.0645,1.2578-.1573,1.9043-.2823.6484-.122,1.3027-.2617,1.9609-.415q.99-.233,1.9609-.418a18.7207,18.7207,0,0,1,1.9493-.2627,9.84,9.84,0,0,1,1.8867.0283,6.9275,6.9275,0,0,1,1.81.4707L269.32,444.4434a1.3785,1.3785,0,0,1,.6758.538,3.6714,3.6714,0,0,1,.3691.7823,2.9772,2.9772,0,0,1,.1407.9521,2.4009,2.4009,0,0,1-.15.8877l-3.3418,8.2354a1.9985,1.9985,0,0,1-.4922.6963,3.1755,3.1755,0,0,1-.7461.539,2.1325,2.1325,0,0,1-.8359.2422,1.73,1.73,0,0,1-.7969-.1133Z">
        </path>
        <path fill="#fff"
            d="M236.1855,360.31a3.0343,3.0343,0,0,1-.9589-1.03,4.6114,4.6114,0,0,1-.5469-1.4014,3.8726,3.8726,0,0,1-.0313-1.4756,3.4224,3.4224,0,0,1,.4981-1.3076l21.1992-32.6924a3.6864,3.6864,0,0,1,.48-.5615,6.3176,6.3176,0,0,1,.6582-.5635,1.47,1.47,0,0,1,.7129-.2939,1.0552,1.0552,0,0,1,.707.168l3.6055,2.3379a1.764,1.764,0,0,1,.5488.5888,2.18,2.18,0,0,1,.2793.8223,3.1056,3.1056,0,0,1-.0137.9209,2.0656,2.0656,0,0,1-.2871.8027l-18.0137,27.7774a1.444,1.444,0,0,0-.2109.5029,1.102,1.102,0,0,0,.0488.5547,4.7443,4.7443,0,0,0,.2227.5537,1.03,1.03,0,0,0,.3711.4141l17.3711,11.2646a1.3083,1.3083,0,0,0,.57.1963,2.0669,2.0669,0,0,0,.664-.0361,2.0405,2.0405,0,0,0,.6211-.2383,1.2609,1.2609,0,0,0,.44-.4121l17.9062-27.6123a2.2369,2.2369,0,0,1,.5489-.5762,3.4374,3.4374,0,0,1,.6582-.3877,2.573,2.573,0,0,1,.7011-.1846,1.0472,1.0472,0,0,1,.709.168l3.1133,2.0186a2.072,2.072,0,0,1,.59.6142,2.61,2.61,0,0,1,.3632.877,4.1536,4.1536,0,0,1,.0938.9336,1.4784,1.4784,0,0,1-.2207.788l-15.1973,23.4336a1.6454,1.6454,0,0,0-.2226.6123,1.89,1.89,0,0,0,.01.7041,1.8483,1.8483,0,0,0,.2793.6475,1.6266,1.6266,0,0,0,.4531.4678l16.3868,10.626a1.2968,1.2968,0,0,0,.57.1962,1.2531,1.2531,0,0,0,.65-.1025,2.437,2.437,0,0,0,.5644-.332,1.8638,1.8638,0,0,0,.4-.4385L308.9414,355.81a2.6093,2.6093,0,0,1,.5742-.6162,6.4424,6.4424,0,0,1,.7364-.5108,2.6643,2.6643,0,0,1,.7832-.3086.9438.9438,0,0,1,.7324.127l4.2617,2.7627a1.314,1.314,0,0,1,.4121.4424,3.06,3.06,0,0,1,.2637.5781,1.6674,1.6674,0,0,1,.09.582,1.0509,1.0509,0,0,1-.17.5313l-22.1562,34.167a3.8153,3.8153,0,0,1-.8965.9316,5.6716,5.6716,0,0,1-1.2246.72,3.1134,3.1134,0,0,1-1.2832.2744,2.2094,2.2094,0,0,1-1.209-.3779Z">
        </path>
        <path fill="#fff"
            d="M271.4316,308.6436a3.0283,3.0283,0,0,1-.7773-1.1748,4.658,4.658,0,0,1-.3066-1.4737,3.8439,3.8439,0,0,1,.2109-1.4609,3.4478,3.4478,0,0,1,.707-1.2061L297.58,274.59a3.4025,3.4025,0,0,1,.5664-.4736,6.0809,6.0809,0,0,1,.74-.4473,1.4813,1.4813,0,0,1,.7539-.1718,1.0358,1.0358,0,0,1,.668.2822l3.17,2.9a1.7465,1.7465,0,0,1,.4434.6728,2.2224,2.2224,0,0,1,.1426.8575,3.2392,3.2392,0,0,1-.168.9052,2.0555,2.0555,0,0,1-.416.7442l-22.3575,24.417a1.49,1.49,0,0,0-.291.4619,1.0861,1.0861,0,0,0-.0429.5547,3.8609,3.8609,0,0,0,.1289.582,1.01,1.01,0,0,0,.2968.4707l15.2676,13.98a1.298,1.298,0,0,0,.5313.2881,2.015,2.015,0,0,0,.6621.0752,2.0639,2.0639,0,0,0,.65-.1319,1.32,1.32,0,0,0,.5039-.334l22.2246-24.2724a2.2054,2.2054,0,0,1,.6348-.4776,3.42,3.42,0,0,1,.7128-.2734,2.519,2.519,0,0,1,.7247-.0654,1.0392,1.0392,0,0,1,.6679.28l2.7363,2.5059a2.0238,2.0238,0,0,1,.4805.7051,2.5642,2.5642,0,0,1,.2149.9238,4.2325,4.2325,0,0,1-.0625.9365,1.47,1.47,0,0,1-.3477.7412l-18.8613,20.5987a1.6134,1.6134,0,0,0-.32.5664,1.8008,1.8008,0,0,0,.06,1.3808,1.6342,1.6342,0,0,0,.3692.5362l14.4062,13.1894a1.2775,1.2775,0,0,0,.5293.2881,1.2522,1.2522,0,0,0,.6582.0059,2.4521,2.4521,0,0,0,.6113-.2344,1.8468,1.8468,0,0,0,.4668-.3662l19.1914-20.96a2.6276,2.6276,0,0,1,.668-.5127,6.0885,6.0885,0,0,1,.8125-.3808,2.6581,2.6581,0,0,1,.8223-.1758.9381.9381,0,0,1,.7011.2461l3.7461,3.43a1.2831,1.2831,0,0,1,.334.5029,2.9717,2.9717,0,0,1,.1641.6143,1.6434,1.6434,0,0,1-.0078.5878,1.021,1.021,0,0,1-.2559.4952l-27.498,30.0351a3.79,3.79,0,0,1-1.0391.7715,5.6567,5.6567,0,0,1-1.3242.5078,3.1147,3.1147,0,0,1-1.3125.0576,2.2185,2.2185,0,0,1-1.1309-.5713Z">
        </path>
        <path fill="#fff"
            d="M357.7891,225.9326a3.8121,3.8121,0,0,1,1.3086-.6172,5.7944,5.7944,0,0,1,1.5625-.1963,4.6028,4.6028,0,0,1,1.4668.2422,2.2509,2.2509,0,0,1,1.0742.78l7.5683,10.07a1.7322,1.7322,0,0,1,.3145.7412,3.8346,3.8346,0,0,1,.039.9483,2.4,2.4,0,0,1-.2343.9091,1.7257,1.7257,0,0,1-.5059.625l-8.041,6.043a2.02,2.02,0,0,1-.7813.3428,3.144,3.144,0,0,1-.9179.0791,2.5843,2.5843,0,0,1-.9082-.2344,1.69,1.69,0,0,1-.6934-.5166l-3.9316-5.2305a2.26,2.26,0,0,0-.586-.5361,2.4744,2.4744,0,0,0-.791-.3213,2.2123,2.2123,0,0,0-.8691-.0185,1.7324,1.7324,0,0,0-.7422.3134l-26.0742,19.5967a1.2413,1.2413,0,0,0-.44.6358,2.4961,2.4961,0,0,0-.1152.82,2.898,2.898,0,0,0,.1562.8594,2.3552,2.3552,0,0,0,.3243.6738l11.7929,15.6914a1.5588,1.5588,0,0,0,.5762.36q.4571.2052,1.1523.4776t1.5254.5644c.5528.1944,1.1387.4073,1.7578.6328a19.5267,19.5267,0,0,1,1.9063.8282c.6484.3252,1.2852.6816,1.9043,1.0722a15.5119,15.5119,0,0,1,1.7988,1.336,10.5057,10.5057,0,0,1,1.5156,1.61l10.9707,14.5987a2.4239,2.4239,0,0,0,.8028.7412,1.92,1.92,0,0,0,.7715.2129,1.2431,1.2431,0,0,0,.6836-.1475,4.7641,4.7641,0,0,0,.6132-.4014l26.543-19.9492a1.4637,1.4637,0,0,0,.4785-.6641,2.1886,2.1886,0,0,0,.1543-.85,2.9134,2.9134,0,0,0-.1562-.8593,2.6334,2.6334,0,0,0-.3828-.751l-8.2149-10.93a2.6614,2.6614,0,0,1-.4394-1.8057,4.1711,4.1711,0,0,1,.2324-.9082,1.4736,1.4736,0,0,1,.4785-.665l2.9668-2.2285a1.7178,1.7178,0,0,1,.8086-.3047,2.3091,2.3091,0,0,1,.9668.0674,3.91,3.91,0,0,1,.92.4092,2.39,2.39,0,0,1,.6836.5859l11.9688,15.9248a3.29,3.29,0,0,1,.5683,1.4053,5.4065,5.4065,0,0,1,.0313,1.748,5.74,5.74,0,0,1-.4766,1.6416,3.2136,3.2136,0,0,1-.9746,1.2227L358.916,313.4131a4.011,4.011,0,0,1-1.416.6357,4.8633,4.8633,0,0,1-1.7285.1377,4.9357,4.9357,0,0,1-1.6113-.4365,3.0232,3.0232,0,0,1-1.1641-.8975l-37.668-50.1191a3.0248,3.0248,0,0,1-.5488-1.2979,4.8611,4.8611,0,0,1-.0195-1.5722,4.5842,4.5842,0,0,1,.4961-1.5342,3.3492,3.3492,0,0,1,.9257-1.124Z">
        </path>
        <path fill="#fff"
            d="M394.6465,252.19a2.9264,2.9264,0,0,1-.3027-1.4853,4.5075,4.5075,0,0,1,.375-1.55,4.9684,4.9684,0,0,1,.8535-1.3526,3.8082,3.8082,0,0,1,1.1367-.8935l26.4062-13.1377a.9409.9409,0,0,0,.4805-.5674.9311.9311,0,0,0-.043-.7422l-2.5664-5.1582a.94.94,0,0,0-.7636-.4385,1.5963,1.5963,0,0,0-.9395.086L391.2188,240.916a2.3618,2.3618,0,0,1-.6114.1953,1.7,1.7,0,0,1-.7207-.0234,3.31,3.31,0,0,1-.6543-.22.8435.8435,0,0,1-.416-.3936l-2.043-4.1094a1.2734,1.2734,0,0,1-.1093-.6552,2.12,2.12,0,0,1,.1777-.7422,3.5439,3.5439,0,0,1,.416-.6983,1.541,1.541,0,0,1,.5254-.4785l33.2227-16.5322a2.5863,2.5863,0,0,1,1.2461-.2383,5.113,5.113,0,0,1,1.4414.2656,4.09,4.09,0,0,1,1.2636.6787,2.9154,2.9154,0,0,1,.8067.9629l15.4883,31.125a1.8259,1.8259,0,0,0,.457.5909,3.887,3.887,0,0,0,.5879.416,1.4312,1.4312,0,0,0,.59.1982,1.2228,1.2228,0,0,0,.6328-.1523l2.1875-1.0879a1.5974,1.5974,0,0,1,.6328-.1514,2.5932,2.5932,0,0,1,.7422.0664,2.5382,2.5382,0,0,1,.6758.2647,1.0408,1.0408,0,0,1,.4356.4365l2.09,4.1973a1.2487,1.2487,0,0,1,.1074.7636,3.113,3.113,0,0,1-.834,1.6153,2.6234,2.6234,0,0,1-.6777.5l-37.42,18.62a3.6444,3.6444,0,0,1-1.4649.3467,5.6581,5.6581,0,0,1-1.6582-.1563,4.2418,4.2418,0,0,1-1.4843-.68,2.9858,2.9858,0,0,1-.9805-1.0937Zm15.9473-3.2451a1.5055,1.5055,0,0,0-.6583,1.9649l5.961,11.9775a1.5,1.5,0,0,0,1.9629.6592l15.5625-7.7442a1.5,1.5,0,0,0,.6582-1.9638l-5.959-11.9785a1.5025,1.5025,0,0,0-1.9649-.6583Z">
        </path>
        <path fill="#fff"
            d="M438.082,195.3242l4.6192-1.584a1.9773,1.9773,0,0,1,1.5761.0782,1.8759,1.8759,0,0,1,.9981,1.1025l4.0566,11.8232,10.0684-3.456a1.4793,1.4793,0,0,1,.8184-.0235,2.9994,2.9994,0,0,1,.8359.3321,3.6963,3.6963,0,0,1,.7012.5351,1.76,1.76,0,0,1,.4394.6748l3.3281,9.6983a1.6536,1.6536,0,0,1,.0684.6484,1.9,1.9,0,0,1-.18.6817,3.4,3.4,0,0,1-.3672.5888,1.0327,1.0327,0,0,1-.49.376l-10.5274,3.6143,8.084,23.5537a1.58,1.58,0,0,0,.25.4287,1.3409,1.3409,0,0,0,.4981.3974,2.4791,2.4791,0,0,0,.5879.211,1.0219,1.0219,0,0,0,.5566-.0352l4.9883-1.7129a1.3187,1.3187,0,0,1,.6016-.0517,2.0833,2.0833,0,0,1,.6347.1953,1.8724,1.8724,0,0,1,.5606.4277,1.6231,1.6231,0,0,1,.3437.5518l1.2363,3.6025a2.2032,2.2032,0,0,1,.0137,1.5449,1.5758,1.5758,0,0,1-1.01.9659l-12.84,4.4072a2.0007,2.0007,0,0,1-2.4805-1.2119l-12.5254-36.4854-3.7871,1.3008a1.3407,1.3407,0,0,1-1.1113-.083,2.4871,2.4871,0,0,1-.5273-.3359.9991.9991,0,0,1-.3145-.46l-1.68-4.8955a1.1646,1.1646,0,0,1-.0508-.4473,1.945,1.945,0,0,1,.0879-.4951,1.309,1.309,0,0,1,.26-.4492.8613.8613,0,0,1,.3672-.2822l4.1562-1.4278-4.0586-11.8222a2.0006,2.0006,0,0,1,1.2129-2.4815Z">
        </path>
        <path fill="#fff"
            d="M482,244.248l-13.0469-64.9121a2.17,2.17,0,0,1-.0117-.7949,2.3762,2.3762,0,0,1,.2481-.748,2.0866,2.0866,0,0,1,.4785-.5938,1.4575,1.4575,0,0,1,.68-.3359l4.6914-.9434a1.2121,1.2121,0,0,1,.7089.0576,2.1153,2.1153,0,0,1,.6309.4209,3.6748,3.6748,0,0,1,.5176.5928,1.8022,1.8022,0,0,1,.289.69l3.58,17.8057a1.5934,1.5934,0,0,0,.2676.5947,1.521,1.521,0,0,0,.5469.4873,2.5351,2.5351,0,0,0,.6992.2588,1.6058,1.6058,0,0,0,.65.0176l28.6269-5.7539a3.4891,3.4891,0,0,1,1.6094.0752,5.5478,5.5478,0,0,1,2.875,1.9121,3.4723,3.4723,0,0,1,.6895,1.4551l8.3144,41.36a1.4452,1.4452,0,0,1-.0449.7569,2.4835,2.4835,0,0,1-.4043.7285,2.45,2.45,0,0,1-.6309.5752,1.9475,1.9475,0,0,1-.6406.2773l-4.6914.9434a2.1933,2.1933,0,0,1-.7949.0107,2.4374,2.4374,0,0,1-.8047-.2871,2.3834,2.3834,0,0,1-.65-.5166,1.4276,1.4276,0,0,1-.3379-.6787L508.752,201.417a1.0208,1.0208,0,0,0-.25-.4971,1.7112,1.7112,0,0,0-.4688-.3535,1.9679,1.9679,0,0,0-.5371-.1914,1.46,1.46,0,0,0-.5469.0107l-16.9453,3.4053a1.6331,1.6331,0,0,0-.5918.2686,1.86,1.86,0,0,0-.498.499,1.8325,1.8325,0,0,0-.2676.65,1.6143,1.6143,0,0,0-.0195.6514l7.16,35.6171a2.2172,2.2172,0,0,1-.41,1.6748,3.6615,3.6615,0,0,1-.6231.6241,1.6931,1.6931,0,0,1-.7266.3447l-9.3828,1.8867a1.7043,1.7043,0,0,1-.8047-.0381,3.49,3.49,0,0,1-.8144-.334A2.2065,2.2065,0,0,1,482,244.248Z">
        </path>
        <path fill="#fff"
            d="M532.3965,188.3418l38.3515-1.4805a2.504,2.504,0,0,1,1.0313.1573,2.7681,2.7681,0,0,1,.8516.5517,2.8469,2.8469,0,0,1,.6191.8076,2.53,2.53,0,0,1,.2344,1.0166l1.6718,43.3291A2.5238,2.5238,0,0,1,575,233.7549a2.2574,2.2574,0,0,1-.5566.8027,4.5881,4.5881,0,0,1-.8067.6182,2.07,2.07,0,0,1-1.0137.2832l-38.3515,1.48a2.1509,2.1509,0,0,1-.9844-.2061,3.1014,3.1014,0,0,1-.8535-.5537,2.5663,2.5663,0,0,1-.5664-.76,2.4665,2.4665,0,0,1-.2344-1.0175l-1.6719-43.3282a2.4993,2.4993,0,0,1,.1563-1.0322,3.149,3.149,0,0,1,.5058-.8486,2.1468,2.1468,0,0,1,.8047-.6182A2.6339,2.6339,0,0,1,532.3965,188.3418Zm7.2344,7.6367a1.05,1.05,0,0,0-.77.3223.942.942,0,0,0-.2675.6943l1.1874,30.74a.925.925,0,0,0,.3184.6708,1.05,1.05,0,0,0,.791.2627l18.834-.7265a1.1064,1.1064,0,0,0,.7207-.32.8861.8861,0,0,0,.3164-.6973l-.5039-10.5342a10.6378,10.6378,0,0,1,.1543-2.3027,14.815,14.815,0,0,1,.5508-2.1719,19.0883,19.0883,0,0,1,.85-2.0849q.4951-1.0444.998-1.9444.501-.8994,1.01-1.7.5068-.8.8711-1.5a11.553,11.553,0,0,0,.5859-1.2929,2.8545,2.8545,0,0,0,.2032-1.0831l-.2461-6.3427a1,1,0,0,0-1.0137-.9385Z">
        </path>
        <path fill="#fff"
            d="M586.752,190.3535a3.2858,3.2858,0,0,1,1.0156-2.2851,3.9742,3.9742,0,0,1,2.8535-.39l36.6406,4.4834a10.168,10.168,0,0,1,1.8242.3711,3.7213,3.7213,0,0,1,1.2481.6445,1.969,1.969,0,0,1,.6582,1.0645,6.28,6.28,0,0,1,.1543,1.5439l-5.2285,43.5352a2.3808,2.3808,0,0,1-.2578.9023,3.3178,3.3178,0,0,1-.3008.4561.4844.4844,0,0,1-.2676.1641.7732.7732,0,0,1-.248.0185l-6.2032-.76a1.5617,1.5617,0,0,1-.4726-.1552,1.335,1.335,0,0,1-.4922-.4053,2.5969,2.5969,0,0,1-.3281-.5313,1.0159,1.0159,0,0,1-.08-.5507l4.5781-37.417a6.7855,6.7855,0,0,0,.0645-.9258.8666.8666,0,0,0-.1348-.5088.75.75,0,0,0-.3633-.2412,3.4063,3.4063,0,0,0-.625-.126l-24.2324-2.9658a4.8741,4.8741,0,0,0-.832-.0518.7279.7279,0,0,0-.41.1465.5914.5914,0,0,0-.1992.418c-.0235.1943-.0508.4219-.084.6787l-1.3164,10.7588a4.1616,4.1616,0,0,0,.0469,1.2363,4.684,4.684,0,0,0,.4336,1.2832,13.5277,13.5277,0,0,0,.6875,1.2158q.3691.586.789,1.1787t.791,1.1788a8.7069,8.7069,0,0,1,.6407,1.21,10.901,10.901,0,0,1,.4394,1.2334,3.3013,3.3013,0,0,1,.086,1.29l-2.17,17.7382a1.03,1.03,0,0,1-.209.5166,2.6432,2.6432,0,0,1-.4472.4375,1.5086,1.5086,0,0,1-.5274.2793,1.4006,1.4006,0,0,1-.5449.0313l-11.2441-1.375a1.1954,1.1954,0,0,1-.4239-.15,1.2556,1.2556,0,0,1-.4-.3438,1.274,1.274,0,0,1-.2383-.4716,1.4443,1.4443,0,0,1-.0313-.5459Z">
        </path>
    </g>
</svg>